<?xml version="1.0" standalone="no"?>
<!DOCTYPE svg PUBLIC "-//W3C//DTD SVG 20010904//EN"
 "http://www.w3.org/TR/2001/REC-SVG-20010904/DTD/svg10.dtd">
<svg version="1.0" xmlns="http://www.w3.org/2000/svg"
 width="1420.000000pt" height="372.000000pt" viewBox="0 0 1420.000000 372.000000"
 preserveAspectRatio="xMidYMid meet">
<metadata>
Created by potrace 1.16, written by Peter Selinger 2001-2019
</metadata>
<g transform="translate(0.000000,372.000000) scale(0.100000,-0.100000)"
fill="#000000" stroke="none">
<path d="M63 2628 c4 -1122 3 -1110 58 -1368 49 -228 154 -481 264 -637 27
-37 90 -109 139 -158 288 -286 701 -425 1266 -425 569 0 979 139 1270 430 232
231 375 556 435 985 24 172 35 451 25 645 -28 540 -148 886 -393 1137 -230
237 -552 366 -1037 418 -108 12 -324 15 -1083 15 l-948 0 4 -1042z m1912 237
c242 -61 392 -214 454 -465 30 -122 40 -204 47 -385 11 -273 -23 -558 -88
-743 -83 -238 -227 -385 -427 -437 -83 -21 -264 -21 -346 0 -299 79 -463 351
-505 840 -5 66 -10 367 -10 668 l0 549 403 -5 c341 -3 413 -7 472 -22z"/>
<path d="M13011 2690 c-118 -31 -212 -103 -261 -201 -26 -49 -50 -156 -50
-221 l0 -47 -67 -3 -68 -3 -3 -152 -3 -153 71 0 70 0 0 -460 0 -460 190 0 190
0 0 460 0 460 100 0 100 0 0 155 0 155 -100 0 -100 0 0 35 c0 87 46 132 139
137 l51 3 0 158 0 157 -92 -1 c-58 0 -121 -7 -167 -19z"/>
<path d="M8933 2540 c-311 -48 -545 -270 -618 -585 -19 -78 -21 -272 -5 -355
74 -389 403 -640 810 -616 176 10 314 57 437 150 112 85 195 192 249 323 22
53 24 72 24 231 l0 172 -410 0 -410 0 0 -135 0 -135 236 0 236 0 -7 -27 c-10
-43 -63 -119 -112 -163 -81 -71 -203 -101 -334 -81 -227 36 -349 191 -349 446
0 141 33 236 113 322 77 84 156 115 292 114 116 0 184 -27 252 -97 l51 -54
206 0 206 0 -25 65 c-38 101 -72 154 -156 237 -84 84 -185 141 -309 173 -73
20 -294 28 -377 15z"/>
<path d="M4030 1759 l0 -771 368 4 c421 5 450 10 622 95 177 87 312 253 367
453 13 49 18 102 18 220 0 183 -12 238 -81 379 -94 191 -268 320 -502 371 -77
17 -129 20 -439 20 l-353 0 0 -771z m695 436 c198 -52 304 -203 305 -435 0
-136 -41 -247 -119 -324 -91 -89 -182 -117 -379 -120 l-127 -1 -3 448 -2 447
133 0 c87 0 153 -5 192 -15z"/>
<path d="M13520 2370 l0 -150 -75 0 -75 0 0 -155 0 -154 73 -3 72 -3 5 -320 5
-320 28 -60 c75 -160 190 -214 455 -215 l132 0 0 160 0 160 -90 0 c-100 0
-134 11 -149 49 -8 17 -10 116 -9 286 l3 260 123 3 122 3 0 154 0 155 -125 0
-125 0 0 150 0 150 -185 0 -185 0 0 -150z"/>
<path d="M6010 2219 c-184 -53 -315 -152 -385 -289 -51 -101 -70 -186 -69
-320 0 -180 34 -292 123 -410 208 -276 681 -303 930 -52 65 65 121 156 137
225 l6 27 -201 0 c-116 0 -201 -4 -201 -9 0 -20 -56 -75 -95 -92 -77 -36 -195
-20 -254 34 -30 28 -71 113 -71 149 l0 28 423 2 422 3 3 91 c9 285 -136 506
-388 595 -54 19 -89 23 -205 26 -77 1 -156 -2 -175 -8z m260 -306 c66 -27 111
-83 124 -155 l7 -38 -236 0 c-268 0 -256 -5 -210 87 56 113 189 157 315 106z"/>
<path d="M10326 2215 c-136 -35 -254 -131 -296 -243 -18 -46 -21 -72 -18 -137
10 -188 107 -270 407 -347 173 -44 229 -69 250 -112 12 -25 11 -33 -3 -63 -23
-47 -72 -67 -154 -60 -79 6 -133 39 -158 97 l-18 40 -184 0 -184 0 7 -42 c26
-160 178 -304 375 -354 89 -23 273 -23 360 0 242 65 364 248 301 454 -41 136
-151 212 -396 273 -198 49 -255 79 -255 137 0 62 48 94 142 93 82 0 142 -37
167 -103 l11 -28 170 0 c196 0 184 -8 150 103 -39 126 -142 230 -275 278 -79
29 -308 36 -399 14z"/>
<path d="M11685 2224 c-316 -76 -495 -300 -495 -619 0 -189 54 -329 175 -451
79 -81 166 -130 285 -160 86 -22 254 -22 340 0 85 21 213 85 271 135 63 55
133 161 166 251 25 69 27 87 27 220 0 133 -2 152 -27 224 -66 188 -177 300
-367 371 -67 25 -90 29 -215 31 -77 2 -149 1 -160 -2z m240 -338 c95 -45 143
-125 152 -255 10 -136 -38 -241 -134 -298 -41 -24 -59 -28 -123 -28 -63 0 -82
4 -121 27 -109 64 -157 231 -112 392 14 49 27 71 69 113 28 28 67 56 85 61 61
18 131 13 184 -12z"/>
<path d="M6870 2211 c0 -5 96 -280 214 -612 l214 -604 234 -3 233 -2 215 606
c118 334 217 611 218 615 2 5 -86 9 -197 9 l-200 0 -30 -96 c-16 -53 -76 -249
-132 -435 -57 -187 -106 -333 -110 -327 -4 7 -64 203 -135 436 l-128 422 -198
0 c-109 0 -198 -4 -198 -9z"/>
</g>
</svg>
